<svg width="23" height="23" viewBox="0 0 23 23" fill="none" xmlns="http://www.w3.org/2000/svg">
<g id="icn bxs-star">
<path id="Vector" d="M20.1364 8.41939C20.0788 8.24958 19.9727 8.10037 19.8312 7.99018C19.6897 7.87999 19.519 7.81365 19.3403 7.79934L14.1111 7.38383L11.8483 2.37482C11.7762 2.21349 11.659 2.07646 11.5108 1.98028C11.3626 1.88409 11.1897 1.83286 11.013 1.83276C10.8363 1.83267 10.6634 1.88371 10.515 1.97973C10.3667 2.07575 10.2493 2.21265 10.1771 2.3739L7.91428 7.38383L2.68513 7.79934C2.50944 7.81326 2.34148 7.8775 2.20134 7.98438C2.0612 8.09125 1.95482 8.23624 1.89493 8.40199C1.83503 8.56774 1.82416 8.74724 1.8636 8.91901C1.90305 9.09078 1.99115 9.24755 2.11736 9.37056L5.98167 13.1376L4.61499 19.0556C4.57349 19.2348 4.58679 19.4222 4.65316 19.5937C4.71954 19.7652 4.83592 19.9128 4.9872 20.0173C5.13849 20.1218 5.3177 20.1785 5.50157 20.1799C5.68545 20.1813 5.8655 20.1274 6.01836 20.0252L11.0127 16.6956L16.007 20.0252C16.1633 20.1289 16.3475 20.1823 16.535 20.1782C16.7225 20.1741 16.9043 20.1126 17.0558 20.0022C17.2073 19.8917 17.3214 19.7374 17.3827 19.5602C17.4439 19.3829 17.4495 19.1912 17.3985 19.0107L15.7209 13.1404L19.8814 9.39625C20.1539 9.15043 20.2538 8.76702 20.1364 8.41939Z" fill="#F3CD03"/>
</g>
</svg>
