<svg width="16" height="16" viewBox="0 0 16 16" fill="none" xmlns="http://www.w3.org/2000/svg">
<g id="clarity:help-info-solid">
<path id="Vector" d="M9.19165 4.53332C10.1489 4.53332 10.925 3.75728 10.925 2.79998C10.925 1.84269 10.1489 1.06665 9.19165 1.06665C8.23435 1.06665 7.45831 1.84269 7.45831 2.79998C7.45831 3.75728 8.23435 4.53332 9.19165 4.53332Z" fill="#2C2C2C"/>
<path id="Vector_2" d="M10.964 11.5663C10.9161 11.5341 10.8623 11.5117 10.8057 11.5006C10.7491 11.4895 10.6908 11.4898 10.6343 11.5015C10.5778 11.5132 10.5242 11.5361 10.4766 11.5688C10.4291 11.6015 10.3885 11.6434 10.3574 11.692C9.93846 12.3123 9.42528 12.8635 8.83636 13.3256C8.69336 13.434 8.16036 13.8456 7.93503 13.759C7.77903 13.7113 7.87003 13.4036 7.90036 13.2736L8.13003 12.5933C8.22536 12.316 9.88503 7.39328 10.067 6.82995C10.3357 6.00662 10.2187 5.19628 8.99236 5.39128C8.6587 5.42595 5.27436 5.86362 5.2137 5.86795C5.15679 5.87165 5.10117 5.88652 5.05001 5.91171C4.99885 5.93691 4.95316 5.97193 4.91554 6.01479C4.87791 6.05764 4.8491 6.10749 4.83074 6.16148C4.81238 6.21547 4.80483 6.27254 4.80853 6.32945C4.81223 6.38636 4.8271 6.44198 4.8523 6.49314C4.87749 6.54429 4.91251 6.58999 4.95537 6.62761C4.99822 6.66524 5.04807 6.69405 5.10206 6.71241C5.15605 6.73077 5.21313 6.73832 5.27003 6.73462C5.27003 6.73462 6.57003 6.56562 6.71303 6.55262C6.78628 6.54547 6.86003 6.55966 6.92539 6.59349C6.99074 6.62733 7.04492 6.67935 7.08136 6.74328C7.15988 6.98601 7.14913 7.24879 7.05103 7.48428C6.93836 7.91762 5.15737 12.9356 5.10103 13.226C5.04061 13.4689 5.05739 13.7247 5.14903 13.9576C5.24067 14.1906 5.40262 14.3893 5.61236 14.526C6.00605 14.7883 6.47481 14.9147 6.94703 14.8856C7.40618 14.88 7.86026 14.7889 8.28603 14.617C9.36503 14.1836 10.4917 13.031 11.0854 12.1253C11.1365 12.0333 11.1524 11.9258 11.13 11.8229C11.1077 11.7201 11.0487 11.6288 10.964 11.5663Z" fill="#2C2C2C"/>
</g>
</svg>
